<svg xmlns="http://www.w3.org/2000/svg" xmlns:xlink="http://www.w3.org/1999/xlink" width="2255" height="934" preserveAspectRatio="xMidYMid" viewBox="0 0 2255 934" style="margin:auto;display:block;z-index:1;position:relative;shape-rendering:auto"><g><style type="text/css">@keyframes ld-fall{0%{transform:translate(0,0) rotate3d(1,1,1,0deg)}}.ld.ld-fall{animation:ld-fall 1s linear infinite}</style><g><g><g style="animation-delay:NaNs;animation-duration:4s" class="ld ld-fall" transform="translate(0 26.787048256541105) translate(1392.089897405399 0)"><rect style="transform:scale(2.2728266067738905)" width="11.138" height="6.087" x="-5.569" y="-3.044" fill="#4355db"/></g></g><g><g style="animation-delay:-1.1489362901790745s;animation-duration:2s" class="ld ld-fall" transform="translate(0 26.787048256541105) translate(1044.4326467827016 0)"><rect style="transform:scale(3.2076893560303263)" width="6.27" height="9.631" x="-3.135" y="-4.816" fill="#d23be7"/></g></g><g><g style="animation-delay:-.8924050502699186s;animation-duration:2s" class="ld ld-fall" transform="translate(0 26.787048256541105) translate(183.21292949182552 0)"><rect style="transform:scale(1.5511037631986981)" width="11.057" height="8.411" x="-5.528" y="-4.205" fill="#f7d038"/></g></g><g><g style="animation-delay:-.6939308761969367s;animation-duration:2s" class="ld ld-fall" transform="translate(0 26.787048256541105) translate(902.171518690084 0)"><rect style="transform:scale(3.3819349481492313)" width="6.458" height="9.857" x="-3.229" y="-4.928" fill="#4355db"/></g></g><g><g style="animation-delay:-.36875737114120843s;animation-duration:4s" class="ld ld-fall" transform="translate(0 26.787048256541105) translate(742.9207000611727 0)"><rect style="transform:scale(2.2689303036264548)" width="11.104" height="10.713" x="-5.552" y="-5.356" fill="#4355db"/></g></g><g><g style="animation-delay:-1.8565553932655625s;animation-duration:4s" class="ld ld-fall" transform="translate(0 26.787048256541105) translate(1541.4188677286718 0)"><rect style="transform:scale(2.298293750117538)" width="6.157" height="10.777" x="-3.078" y="-5.389" fill="#34bbe6"/></g></g><g><g style="animation-delay:-2.2257252257084135s;animation-duration:2s" class="ld ld-fall" transform="translate(0 26.787048256541105) translate(610.185765545227 0)"><rect style="transform:scale(3.0923354623417687)" width="9.456" height="8.213" x="-4.728" y="-4.106" fill="#d23be7"/></g></g><g><g style="animation-delay:-.2284830086654135s;animation-duration:2s" class="ld ld-fall" transform="translate(0 26.787048256541105) translate(1458.548467879579 0)"><rect style="transform:scale(1.9712725510630054)" width="8.808" height="6.447" x="-4.404" y="-3.224" fill="#eb7532"/></g></g><g><g style="animation-delay:-.8823708440848295s;animation-duration:4s" class="ld ld-fall" transform="translate(0 26.787048256541105) translate(1589.5776819753694 0)"><rect style="transform:scale(2.471276238760138)" width="7.109" height="9.075" x="-3.555" y="-4.537" fill="#e6261f"/></g></g><g><g style="animation-delay:-2.589030946110533s;animation-duration:2s" class="ld ld-fall" transform="translate(0 26.787048256541105) translate(1904.1382551169168 0)"><rect style="transform:scale(2.1873500096615723)" width="7.069" height="9.737" x="-3.534" y="-4.869" fill="#f7d038"/></g></g><g><g style="animation-delay:-1.6204539336562336s;animation-duration:4s" class="ld ld-fall" transform="translate(0 26.787048256541105) translate(1082.1579376547693 0)"><rect style="transform:scale(2.9750937426928115)" width="7.145" height="6.604" x="-3.573" y="-3.302" fill="#d23be7"/></g></g><g><g style="animation-delay:-3.742566785571066s;animation-duration:4s" class="ld ld-fall" transform="translate(0 26.787048256541105) translate(2178.8280121051544 0)"><rect style="transform:scale(2.226623415801583)" width="11.888" height="11.107" x="-5.944" y="-5.553" fill="#e6261f"/></g></g><g><g style="animation-delay:-1.388055447668334s;animation-duration:4s" class="ld ld-fall" transform="translate(0 26.787048256541105) translate(316.37353447180686 0)"><rect style="transform:scale(2.1395165121362876)" width="10.147" height="7.76" x="-5.074" y="-3.88" fill="#d23be7"/></g></g><g><g style="animation-delay:-3.4917694902265852s;animation-duration:4s" class="ld ld-fall" transform="translate(0 26.787048256541105) translate(2.7450235909733687 0)"><rect style="transform:scale(3.4262869528823314)" width="9.459" height="8.798" x="-4.73" y="-4.399" fill="#4355db"/></g></g><g><g style="animation-delay:-1.3312363218843162s;animation-duration:2s" class="ld ld-fall" transform="translate(0 26.787048256541105) translate(1769.1068552005936 0)"><rect style="transform:scale(3.131824953301402)" width="6.403" height="8.622" x="-3.202" y="-4.311" fill="#f7d038"/></g></g><g><g style="animation-delay:-.4300325972043524s;animation-duration:4s" class="ld ld-fall" transform="translate(0 26.787048256541105) translate(2144.3062401446773 0)"><rect style="transform:scale(1.6839553151876636)" width="10.639" height="7.917" x="-5.319" y="-3.959" fill="#a3e048"/></g></g><g><g style="animation-delay:-3.5934157299263605s;animation-duration:2s" class="ld ld-fall" transform="translate(0 26.787048256541105) translate(342.90306953972805 0)"><rect style="transform:scale(1.8520021855013433)" width="7.25" height="7.24" x="-3.625" y="-3.62" fill="#eb7532"/></g></g><g><g style="animation-delay:-1.2210936675255049s;animation-duration:4s" class="ld ld-fall" transform="translate(0 26.787048256541105) translate(1623.8932316529522 0)"><rect style="transform:scale(2.786307904656132)" width="11.681" height="7.248" x="-5.84" y="-3.624" fill="#eb7532"/></g></g><g><g style="animation-delay:-1.5574315396069842s;animation-duration:4s" class="ld ld-fall" transform="translate(0 26.787048256541105) translate(2121.5415999595816 0)"><rect style="transform:scale(2.451100609776853)" width="11.231" height="10.151" x="-5.615" y="-5.075" fill="#a3e048"/></g></g><g><g style="animation-delay:-1.4967050078323272s;animation-duration:2s" class="ld ld-fall" transform="translate(0 26.787048256541105) translate(1606.499278217662 0)"><rect style="transform:scale(3.213293558747601)" width="10.49" height="8.298" x="-5.245" y="-4.149" fill="#4355db"/></g></g><g><g style="animation-delay:-1.979032111536898s;animation-duration:4s" class="ld ld-fall" transform="translate(0 26.787048256541105) translate(1819.6706149170664 0)"><rect style="transform:scale(2.966947554532693)" width="7.841" height="6.273" x="-3.92" y="-3.137" fill="#e6261f"/></g></g><g><g style="animation-delay:-1.3293639118937524s;animation-duration:2s" class="ld ld-fall" transform="translate(0 26.787048256541105) translate(1684.1766500802887 0)"><rect style="transform:scale(1.512060802080808)" width="10.909" height="8.891" x="-5.455" y="-4.446" fill="#e6261f"/></g></g><g><g style="animation-delay:-1.8602980991293236s;animation-duration:4s" class="ld ld-fall" transform="translate(0 26.787048256541105) translate(1243.5626755088072 0)"><rect style="transform:scale(2.009673368681099)" width="8.496" height="8.555" x="-4.248" y="-4.278" fill="#34bbe6"/></g></g><g><g style="animation-delay:-.5420142151560086s;animation-duration:4s" class="ld ld-fall" transform="translate(0 26.787048256541105) translate(1752.3249089219394 0)"><rect style="transform:scale(2.5982719362341995)" width="8.642" height="9.66" x="-4.321" y="-4.83" fill="#eb7532"/></g></g><g><g style="animation-delay:-1.1594494582974688s;animation-duration:2s" class="ld ld-fall" transform="translate(0 26.787048256541105) translate(1158.4895973958946 0)"><rect style="transform:scale(1.7963688449780832)" width="9.047" height="10.119" x="-4.524" y="-5.06" fill="#34bbe6"/></g></g></g><g><g><g style="animation-delay:NaNs;animation-duration:4s" class="ld ld-fall" transform="translate(0 -907.2129517434589) translate(1392.089897405399 0)"><rect style="transform:scale(2.2728266067738905)" width="11.138" height="6.087" x="-5.569" y="-3.044" fill="#4355db"/></g></g><g><g style="animation-delay:-1.1489362901790745s;animation-duration:2s" class="ld ld-fall" transform="translate(0 -907.2129517434589) translate(1044.4326467827016 0)"><rect style="transform:scale(3.2076893560303263)" width="6.27" height="9.631" x="-3.135" y="-4.816" fill="#d23be7"/></g></g><g><g style="animation-delay:-.8924050502699186s;animation-duration:2s" class="ld ld-fall" transform="translate(0 -907.2129517434589) translate(183.21292949182552 0)"><rect style="transform:scale(1.5511037631986981)" width="11.057" height="8.411" x="-5.528" y="-4.205" fill="#f7d038"/></g></g><g><g style="animation-delay:-.6939308761969367s;animation-duration:2s" class="ld ld-fall" transform="translate(0 -907.2129517434589) translate(902.171518690084 0)"><rect style="transform:scale(3.3819349481492313)" width="6.458" height="9.857" x="-3.229" y="-4.928" fill="#4355db"/></g></g><g><g style="animation-delay:-.36875737114120843s;animation-duration:4s" class="ld ld-fall" transform="translate(0 -907.2129517434589) translate(742.9207000611727 0)"><rect style="transform:scale(2.2689303036264548)" width="11.104" height="10.713" x="-5.552" y="-5.356" fill="#4355db"/></g></g><g><g style="animation-delay:-1.8565553932655625s;animation-duration:4s" class="ld ld-fall" transform="translate(0 -907.2129517434589) translate(1541.4188677286718 0)"><rect style="transform:scale(2.298293750117538)" width="6.157" height="10.777" x="-3.078" y="-5.389" fill="#34bbe6"/></g></g><g><g style="animation-delay:-2.2257252257084135s;animation-duration:2s" class="ld ld-fall" transform="translate(0 -907.2129517434589) translate(610.185765545227 0)"><rect style="transform:scale(3.0923354623417687)" width="9.456" height="8.213" x="-4.728" y="-4.106" fill="#d23be7"/></g></g><g><g style="animation-delay:-.2284830086654135s;animation-duration:2s" class="ld ld-fall" transform="translate(0 -907.2129517434589) translate(1458.548467879579 0)"><rect style="transform:scale(1.9712725510630054)" width="8.808" height="6.447" x="-4.404" y="-3.224" fill="#eb7532"/></g></g><g><g style="animation-delay:-.8823708440848295s;animation-duration:4s" class="ld ld-fall" transform="translate(0 -907.2129517434589) translate(1589.5776819753694 0)"><rect style="transform:scale(2.471276238760138)" width="7.109" height="9.075" x="-3.555" y="-4.537" fill="#e6261f"/></g></g><g><g style="animation-delay:-2.589030946110533s;animation-duration:2s" class="ld ld-fall" transform="translate(0 -907.2129517434589) translate(1904.1382551169168 0)"><rect style="transform:scale(2.1873500096615723)" width="7.069" height="9.737" x="-3.534" y="-4.869" fill="#f7d038"/></g></g><g><g style="animation-delay:-1.6204539336562336s;animation-duration:4s" class="ld ld-fall" transform="translate(0 -907.2129517434589) translate(1082.1579376547693 0)"><rect style="transform:scale(2.9750937426928115)" width="7.145" height="6.604" x="-3.573" y="-3.302" fill="#d23be7"/></g></g><g><g style="animation-delay:-3.742566785571066s;animation-duration:4s" class="ld ld-fall" transform="translate(0 -907.2129517434589) translate(2178.8280121051544 0)"><rect style="transform:scale(2.226623415801583)" width="11.888" height="11.107" x="-5.944" y="-5.553" fill="#e6261f"/></g></g><g><g style="animation-delay:-1.388055447668334s;animation-duration:4s" class="ld ld-fall" transform="translate(0 -907.2129517434589) translate(316.37353447180686 0)"><rect style="transform:scale(2.1395165121362876)" width="10.147" height="7.76" x="-5.074" y="-3.88" fill="#d23be7"/></g></g><g><g style="animation-delay:-3.4917694902265852s;animation-duration:4s" class="ld ld-fall" transform="translate(0 -907.2129517434589) translate(2.7450235909733687 0)"><rect style="transform:scale(3.4262869528823314)" width="9.459" height="8.798" x="-4.73" y="-4.399" fill="#4355db"/></g></g><g><g style="animation-delay:-1.3312363218843162s;animation-duration:2s" class="ld ld-fall" transform="translate(0 -907.2129517434589) translate(1769.1068552005936 0)"><rect style="transform:scale(3.131824953301402)" width="6.403" height="8.622" x="-3.202" y="-4.311" fill="#f7d038"/></g></g><g><g style="animation-delay:-.4300325972043524s;animation-duration:4s" class="ld ld-fall" transform="translate(0 -907.2129517434589) translate(2144.3062401446773 0)"><rect style="transform:scale(1.6839553151876636)" width="10.639" height="7.917" x="-5.319" y="-3.959" fill="#a3e048"/></g></g><g><g style="animation-delay:-3.5934157299263605s;animation-duration:2s" class="ld ld-fall" transform="translate(0 -907.2129517434589) translate(342.90306953972805 0)"><rect style="transform:scale(1.8520021855013433)" width="7.25" height="7.24" x="-3.625" y="-3.62" fill="#eb7532"/></g></g><g><g style="animation-delay:-1.2210936675255049s;animation-duration:4s" class="ld ld-fall" transform="translate(0 -907.2129517434589) translate(1623.8932316529522 0)"><rect style="transform:scale(2.786307904656132)" width="11.681" height="7.248" x="-5.84" y="-3.624" fill="#eb7532"/></g></g><g><g style="animation-delay:-1.5574315396069842s;animation-duration:4s" class="ld ld-fall" transform="translate(0 -907.2129517434589) translate(2121.5415999595816 0)"><rect style="transform:scale(2.451100609776853)" width="11.231" height="10.151" x="-5.615" y="-5.075" fill="#a3e048"/></g></g><g><g style="animation-delay:-1.4967050078323272s;animation-duration:2s" class="ld ld-fall" transform="translate(0 -907.2129517434589) translate(1606.499278217662 0)"><rect style="transform:scale(3.213293558747601)" width="10.49" height="8.298" x="-5.245" y="-4.149" fill="#4355db"/></g></g><g><g style="animation-delay:-1.979032111536898s;animation-duration:4s" class="ld ld-fall" transform="translate(0 -907.2129517434589) translate(1819.6706149170664 0)"><rect style="transform:scale(2.966947554532693)" width="7.841" height="6.273" x="-3.92" y="-3.137" fill="#e6261f"/></g></g><g><g style="animation-delay:-1.3293639118937524s;animation-duration:2s" class="ld ld-fall" transform="translate(0 -907.2129517434589) translate(1684.1766500802887 0)"><rect style="transform:scale(1.512060802080808)" width="10.909" height="8.891" x="-5.455" y="-4.446" fill="#e6261f"/></g></g><g><g style="animation-delay:-1.8602980991293236s;animation-duration:4s" class="ld ld-fall" transform="translate(0 -907.2129517434589) translate(1243.5626755088072 0)"><rect style="transform:scale(2.009673368681099)" width="8.496" height="8.555" x="-4.248" y="-4.278" fill="#34bbe6"/></g></g><g><g style="animation-delay:-.5420142151560086s;animation-duration:4s" class="ld ld-fall" transform="translate(0 -907.2129517434589) translate(1752.3249089219394 0)"><rect style="transform:scale(2.5982719362341995)" width="8.642" height="9.66" x="-4.321" y="-4.83" fill="#eb7532"/></g></g><g><g style="animation-delay:-1.1594494582974688s;animation-duration:2s" class="ld ld-fall" transform="translate(0 -907.2129517434589) translate(1158.4895973958946 0)"><rect style="transform:scale(1.7963688449780832)" width="9.047" height="10.119" x="-4.524" y="-5.06" fill="#34bbe6"/></g></g></g></g></svg>