<svg xmlns="http://www.w3.org/2000/svg" xmlns:xlink="http://www.w3.org/1999/xlink" style="display:block;position:relative;shape-rendering:auto;animation-play-state:running;animation-delay:0s" width="317" height="317" preserveAspectRatio="xMidYMid" viewBox="0 0 317 317"><g><g transform="scale(1.2400000000000002)"><line x1="9.846" x2="9.846" y1="-265.846" y2="-226.462" stroke="#fefefe" stroke-linecap="round" stroke-width="4.692"/><line x1="9.846" x2="9.846" y1="-9.846" y2="29.538" stroke="#fefefe" stroke-linecap="round" stroke-width="4.692"/><line x1="9.846" x2="9.846" y1="246.154" y2="285.538" stroke="#fefefe" stroke-linecap="round" stroke-width="4.692"/><line x1="9.846" x2="9.846" y1="-206.769" y2="-187.077" stroke="#c2d2ee" stroke-linecap="round" stroke-width="4.692"/><line x1="9.846" x2="9.846" y1="49.231" y2="68.923" stroke="#c2d2ee" stroke-linecap="round" stroke-width="4.692"/><line x1="9.846" x2="9.846" y1="305.231" y2="324.923" stroke="#c2d2ee" stroke-linecap="round" stroke-width="4.692"/><line x1="9.846" x2="9.846" y1="-167.385" y2="-108.308" stroke="#88a2ce" stroke-linecap="round" stroke-width="4.692"/><line x1="9.846" x2="9.846" y1="88.615" y2="147.692" stroke="#88a2ce" stroke-linecap="round" stroke-width="4.692"/><line x1="9.846" x2="9.846" y1="344.615" y2="403.692" stroke="#88a2ce" stroke-linecap="round" stroke-width="4.692"/><line x1="9.846" x2="9.846" y1="-88.615" y2="-68.923" stroke="#456caa" stroke-linecap="round" stroke-width="4.692"/><line x1="9.846" x2="9.846" y1="167.385" y2="187.077" stroke="#456caa" stroke-linecap="round" stroke-width="4.692"/><line x1="9.846" x2="9.846" y1="423.385" y2="443.077" stroke="#456caa" stroke-linecap="round" stroke-width="4.692"/><line x1="9.846" x2="9.846" y1="-49.231" y2="29.538" stroke="#fefefe" stroke-linecap="round" stroke-width="4.692"/><line x1="9.846" x2="9.846" y1="206.769" y2="285.538" stroke="#fefefe" stroke-linecap="round" stroke-width="4.692"/><line x1="9.846" x2="9.846" y1="462.769" y2="541.538" stroke="#fefefe" stroke-linecap="round" stroke-width="4.692"/><animateTransform attributeName="transform" dur="0.6944444444444444s" keyTimes="0;1" repeatCount="indefinite" type="translate" values="0 0;0 -256"/></g><g transform="scale(1.2400000000000002)"><line x1="29.538" x2="29.538" y1="-246.154" y2="-206.769" stroke="#fefefe" stroke-linecap="round" stroke-width="4.692"/><line x1="29.538" x2="29.538" y1="9.846" y2="49.231" stroke="#fefefe" stroke-linecap="round" stroke-width="4.692"/><line x1="29.538" x2="29.538" y1="265.846" y2="305.231" stroke="#fefefe" stroke-linecap="round" stroke-width="4.692"/><line x1="29.538" x2="29.538" y1="-187.077" y2="-128" stroke="#456caa" stroke-linecap="round" stroke-width="4.692"/><line x1="29.538" x2="29.538" y1="68.923" y2="128" stroke="#456caa" stroke-linecap="round" stroke-width="4.692"/><line x1="29.538" x2="29.538" y1="324.923" y2="384" stroke="#456caa" stroke-linecap="round" stroke-width="4.692"/><line x1="29.538" x2="29.538" y1="-108.308" y2="-88.615" stroke="#c2d2ee" stroke-linecap="round" stroke-width="4.692"/><line x1="29.538" x2="29.538" y1="147.692" y2="167.385" stroke="#c2d2ee" stroke-linecap="round" stroke-width="4.692"/><line x1="29.538" x2="29.538" y1="403.692" y2="423.385" stroke="#c2d2ee" stroke-linecap="round" stroke-width="4.692"/><line x1="29.538" x2="29.538" y1="-68.923" y2="-9.846" stroke="#fefefe" stroke-linecap="round" stroke-width="4.692"/><line x1="29.538" x2="29.538" y1="187.077" y2="246.154" stroke="#fefefe" stroke-linecap="round" stroke-width="4.692"/><line x1="29.538" x2="29.538" y1="443.077" y2="502.154" stroke="#fefefe" stroke-linecap="round" stroke-width="4.692"/><animateTransform attributeName="transform" dur="2.0833333333333335s" keyTimes="0;1" repeatCount="indefinite" type="translate" values="0 0;0 256"/></g><g transform="scale(1.2400000000000002)"><line x1="49.231" x2="49.231" y1="-246.154" y2="-206.769" stroke="#88a2ce" stroke-linecap="round" stroke-width="4.692"/><line x1="49.231" x2="49.231" y1="9.846" y2="49.231" stroke="#88a2ce" stroke-linecap="round" stroke-width="4.692"/><line x1="49.231" x2="49.231" y1="265.846" y2="305.231" stroke="#88a2ce" stroke-linecap="round" stroke-width="4.692"/><line x1="49.231" x2="49.231" y1="-187.077" y2="-128" stroke="#88a2ce" stroke-linecap="round" stroke-width="4.692"/><line x1="49.231" x2="49.231" y1="68.923" y2="128" stroke="#88a2ce" stroke-linecap="round" stroke-width="4.692"/><line x1="49.231" x2="49.231" y1="324.923" y2="384" stroke="#88a2ce" stroke-linecap="round" stroke-width="4.692"/><line x1="49.231" x2="49.231" y1="-108.308" y2="-88.615" stroke="#456caa" stroke-linecap="round" stroke-width="4.692"/><line x1="49.231" x2="49.231" y1="147.692" y2="167.385" stroke="#456caa" stroke-linecap="round" stroke-width="4.692"/><line x1="49.231" x2="49.231" y1="403.692" y2="423.385" stroke="#456caa" stroke-linecap="round" stroke-width="4.692"/><line x1="49.231" x2="49.231" y1="-68.923" y2="-9.846" stroke="#fefefe" stroke-linecap="round" stroke-width="4.692"/><line x1="49.231" x2="49.231" y1="187.077" y2="246.154" stroke="#fefefe" stroke-linecap="round" stroke-width="4.692"/><line x1="49.231" x2="49.231" y1="443.077" y2="502.154" stroke="#fefefe" stroke-linecap="round" stroke-width="4.692"/><animateTransform attributeName="transform" dur="2.0833333333333335s" keyTimes="0;1" repeatCount="indefinite" type="translate" values="0 0;0 256"/></g><g transform="scale(1.2400000000000002)"><line x1="68.923" x2="68.923" y1="-246.154" y2="-187.077" stroke="#88a2ce" stroke-linecap="round" stroke-width="4.692"/><line x1="68.923" x2="68.923" y1="9.846" y2="68.923" stroke="#88a2ce" stroke-linecap="round" stroke-width="4.692"/><line x1="68.923" x2="68.923" y1="265.846" y2="324.923" stroke="#88a2ce" stroke-linecap="round" stroke-width="4.692"/><line x1="68.923" x2="68.923" y1="-167.385" y2="-147.692" stroke="#c2d2ee" stroke-linecap="round" stroke-width="4.692"/><line x1="68.923" x2="68.923" y1="88.615" y2="108.308" stroke="#c2d2ee" stroke-linecap="round" stroke-width="4.692"/><line x1="68.923" x2="68.923" y1="344.615" y2="364.308" stroke="#c2d2ee" stroke-linecap="round" stroke-width="4.692"/><line x1="68.923" x2="68.923" y1="-128" y2="-68.923" stroke="#456caa" stroke-linecap="round" stroke-width="4.692"/><line x1="68.923" x2="68.923" y1="128" y2="187.077" stroke="#456caa" stroke-linecap="round" stroke-width="4.692"/><line x1="68.923" x2="68.923" y1="384" y2="443.077" stroke="#456caa" stroke-linecap="round" stroke-width="4.692"/><line x1="68.923" x2="68.923" y1="-49.231" y2="-9.846" stroke="#88a2ce" stroke-linecap="round" stroke-width="4.692"/><line x1="68.923" x2="68.923" y1="206.769" y2="246.154" stroke="#88a2ce" stroke-linecap="round" stroke-width="4.692"/><line x1="68.923" x2="68.923" y1="462.769" y2="502.154" stroke="#88a2ce" stroke-linecap="round" stroke-width="4.692"/><animateTransform attributeName="transform" dur="1.0416666666666667s" keyTimes="0;1" repeatCount="indefinite" type="translate" values="0 0;0 256"/></g><g transform="scale(1.2400000000000002)"><line x1="88.615" x2="88.615" y1="-246.154" y2="-206.769" stroke="#88a2ce" stroke-linecap="round" stroke-width="4.692"/><line x1="88.615" x2="88.615" y1="9.846" y2="49.231" stroke="#88a2ce" stroke-linecap="round" stroke-width="4.692"/><line x1="88.615" x2="88.615" y1="265.846" y2="305.231" stroke="#88a2ce" stroke-linecap="round" stroke-width="4.692"/><line x1="88.615" x2="88.615" y1="-187.077" y2="-147.692" stroke="#456caa" stroke-linecap="round" stroke-width="4.692"/><line x1="88.615" x2="88.615" y1="68.923" y2="108.308" stroke="#456caa" stroke-linecap="round" stroke-width="4.692"/><line x1="88.615" x2="88.615" y1="324.923" y2="364.308" stroke="#456caa" stroke-linecap="round" stroke-width="4.692"/><line x1="88.615" x2="88.615" y1="-128" y2="-108.308" stroke="#456caa" stroke-linecap="round" stroke-width="4.692"/><line x1="88.615" x2="88.615" y1="128" y2="147.692" stroke="#456caa" stroke-linecap="round" stroke-width="4.692"/><line x1="88.615" x2="88.615" y1="384" y2="403.692" stroke="#456caa" stroke-linecap="round" stroke-width="4.692"/><line x1="88.615" x2="88.615" y1="-88.615" y2="-68.923" stroke="#456caa" stroke-linecap="round" stroke-width="4.692"/><line x1="88.615" x2="88.615" y1="167.385" y2="187.077" stroke="#456caa" stroke-linecap="round" stroke-width="4.692"/><line x1="88.615" x2="88.615" y1="423.385" y2="443.077" stroke="#456caa" stroke-linecap="round" stroke-width="4.692"/><line x1="88.615" x2="88.615" y1="-49.231" y2="-9.846" stroke="#456caa" stroke-linecap="round" stroke-width="4.692"/><line x1="88.615" x2="88.615" y1="206.769" y2="246.154" stroke="#456caa" stroke-linecap="round" stroke-width="4.692"/><line x1="88.615" x2="88.615" y1="462.769" y2="502.154" stroke="#456caa" stroke-linecap="round" stroke-width="4.692"/><animateTransform attributeName="transform" dur="1.0416666666666667s" keyTimes="0;1" repeatCount="indefinite" type="translate" values="0 0;0 -256"/></g><g transform="scale(1.2400000000000002)"><line x1="108.308" x2="108.308" y1="-246.154" y2="-226.462" stroke="#88a2ce" stroke-linecap="round" stroke-width="4.692"/><line x1="108.308" x2="108.308" y1="9.846" y2="29.538" stroke="#88a2ce" stroke-linecap="round" stroke-width="4.692"/><line x1="108.308" x2="108.308" y1="265.846" y2="285.538" stroke="#88a2ce" stroke-linecap="round" stroke-width="4.692"/><line x1="108.308" x2="108.308" y1="-206.769" y2="-147.692" stroke="#88a2ce" stroke-linecap="round" stroke-width="4.692"/><line x1="108.308" x2="108.308" y1="49.231" y2="108.308" stroke="#88a2ce" stroke-linecap="round" stroke-width="4.692"/><line x1="108.308" x2="108.308" y1="305.231" y2="364.308" stroke="#88a2ce" stroke-linecap="round" stroke-width="4.692"/><line x1="108.308" x2="108.308" y1="-128" y2="-68.923" stroke="#fefefe" stroke-linecap="round" stroke-width="4.692"/><line x1="108.308" x2="108.308" y1="128" y2="187.077" stroke="#fefefe" stroke-linecap="round" stroke-width="4.692"/><line x1="108.308" x2="108.308" y1="384" y2="443.077" stroke="#fefefe" stroke-linecap="round" stroke-width="4.692"/><line x1="108.308" x2="108.308" y1="-49.231" y2="-9.846" stroke="#fefefe" stroke-linecap="round" stroke-width="4.692"/><line x1="108.308" x2="108.308" y1="206.769" y2="246.154" stroke="#fefefe" stroke-linecap="round" stroke-width="4.692"/><line x1="108.308" x2="108.308" y1="462.769" y2="502.154" stroke="#fefefe" stroke-linecap="round" stroke-width="4.692"/><animateTransform attributeName="transform" dur="2.0833333333333335s" keyTimes="0;1" repeatCount="indefinite" type="translate" values="0 0;0 256"/></g><g transform="scale(1.2400000000000002)"><line x1="128" x2="128" y1="-246.154" y2="-187.077" stroke="#456caa" stroke-linecap="round" stroke-width="4.692"/><line x1="128" x2="128" y1="9.846" y2="68.923" stroke="#456caa" stroke-linecap="round" stroke-width="4.692"/><line x1="128" x2="128" y1="265.846" y2="324.923" stroke="#456caa" stroke-linecap="round" stroke-width="4.692"/><line x1="128" x2="128" y1="-167.385" y2="-147.692" stroke="#c2d2ee" stroke-linecap="round" stroke-width="4.692"/><line x1="128" x2="128" y1="88.615" y2="108.308" stroke="#c2d2ee" stroke-linecap="round" stroke-width="4.692"/><line x1="128" x2="128" y1="344.615" y2="364.308" stroke="#c2d2ee" stroke-linecap="round" stroke-width="4.692"/><line x1="128" x2="128" y1="-128" y2="-108.308" stroke="#c2d2ee" stroke-linecap="round" stroke-width="4.692"/><line x1="128" x2="128" y1="128" y2="147.692" stroke="#c2d2ee" stroke-linecap="round" stroke-width="4.692"/><line x1="128" x2="128" y1="384" y2="403.692" stroke="#c2d2ee" stroke-linecap="round" stroke-width="4.692"/><line x1="128" x2="128" y1="-88.615" y2="-9.846" stroke="#c2d2ee" stroke-linecap="round" stroke-width="4.692"/><line x1="128" x2="128" y1="167.385" y2="246.154" stroke="#c2d2ee" stroke-linecap="round" stroke-width="4.692"/><line x1="128" x2="128" y1="423.385" y2="502.154" stroke="#c2d2ee" stroke-linecap="round" stroke-width="4.692"/><animateTransform attributeName="transform" dur="1.0416666666666667s" keyTimes="0;1" repeatCount="indefinite" type="translate" values="0 0;0 256"/></g><g transform="scale(1.2400000000000002)"><line x1="147.692" x2="147.692" y1="-246.154" y2="-206.769" stroke="#fefefe" stroke-linecap="round" stroke-width="4.692"/><line x1="147.692" x2="147.692" y1="9.846" y2="49.231" stroke="#fefefe" stroke-linecap="round" stroke-width="4.692"/><line x1="147.692" x2="147.692" y1="265.846" y2="305.231" stroke="#fefefe" stroke-linecap="round" stroke-width="4.692"/><line x1="147.692" x2="147.692" y1="-187.077" y2="-128" stroke="#fefefe" stroke-linecap="round" stroke-width="4.692"/><line x1="147.692" x2="147.692" y1="68.923" y2="128" stroke="#fefefe" stroke-linecap="round" stroke-width="4.692"/><line x1="147.692" x2="147.692" y1="324.923" y2="384" stroke="#fefefe" stroke-linecap="round" stroke-width="4.692"/><line x1="147.692" x2="147.692" y1="-108.308" y2="-88.615" stroke="#fefefe" stroke-linecap="round" stroke-width="4.692"/><line x1="147.692" x2="147.692" y1="147.692" y2="167.385" stroke="#fefefe" stroke-linecap="round" stroke-width="4.692"/><line x1="147.692" x2="147.692" y1="403.692" y2="423.385" stroke="#fefefe" stroke-linecap="round" stroke-width="4.692"/><line x1="147.692" x2="147.692" y1="-68.923" y2="-9.846" stroke="#88a2ce" stroke-linecap="round" stroke-width="4.692"/><line x1="147.692" x2="147.692" y1="187.077" y2="246.154" stroke="#88a2ce" stroke-linecap="round" stroke-width="4.692"/><line x1="147.692" x2="147.692" y1="443.077" y2="502.154" stroke="#88a2ce" stroke-linecap="round" stroke-width="4.692"/><animateTransform attributeName="transform" dur="1.0416666666666667s" keyTimes="0;1" repeatCount="indefinite" type="translate" values="0 0;0 256"/></g><g transform="scale(1.2400000000000002)"><line x1="167.385" x2="167.385" y1="-246.154" y2="-206.769" stroke="#88a2ce" stroke-linecap="round" stroke-width="4.692"/><line x1="167.385" x2="167.385" y1="9.846" y2="49.231" stroke="#88a2ce" stroke-linecap="round" stroke-width="4.692"/><line x1="167.385" x2="167.385" y1="265.846" y2="305.231" stroke="#88a2ce" stroke-linecap="round" stroke-width="4.692"/><line x1="167.385" x2="167.385" y1="-187.077" y2="-128" stroke="#c2d2ee" stroke-linecap="round" stroke-width="4.692"/><line x1="167.385" x2="167.385" y1="68.923" y2="128" stroke="#c2d2ee" stroke-linecap="round" stroke-width="4.692"/><line x1="167.385" x2="167.385" y1="324.923" y2="384" stroke="#c2d2ee" stroke-linecap="round" stroke-width="4.692"/><line x1="167.385" x2="167.385" y1="-108.308" y2="-49.231" stroke="#fefefe" stroke-linecap="round" stroke-width="4.692"/><line x1="167.385" x2="167.385" y1="147.692" y2="206.769" stroke="#fefefe" stroke-linecap="round" stroke-width="4.692"/><line x1="167.385" x2="167.385" y1="403.692" y2="462.769" stroke="#fefefe" stroke-linecap="round" stroke-width="4.692"/><line x1="167.385" x2="167.385" y1="-29.538" y2="-9.846" stroke="#c2d2ee" stroke-linecap="round" stroke-width="4.692"/><line x1="167.385" x2="167.385" y1="226.462" y2="246.154" stroke="#c2d2ee" stroke-linecap="round" stroke-width="4.692"/><line x1="167.385" x2="167.385" y1="482.462" y2="502.154" stroke="#c2d2ee" stroke-linecap="round" stroke-width="4.692"/><animateTransform attributeName="transform" dur="0.6944444444444444s" keyTimes="0;1" repeatCount="indefinite" type="translate" values="0 0;0 256"/></g><g transform="scale(1.2400000000000002)"><line x1="187.077" x2="187.077" y1="-246.154" y2="-226.462" stroke="#fefefe" stroke-linecap="round" stroke-width="4.692"/><line x1="187.077" x2="187.077" y1="9.846" y2="29.538" stroke="#fefefe" stroke-linecap="round" stroke-width="4.692"/><line x1="187.077" x2="187.077" y1="265.846" y2="285.538" stroke="#fefefe" stroke-linecap="round" stroke-width="4.692"/><line x1="187.077" x2="187.077" y1="-206.769" y2="-147.692" stroke="#c2d2ee" stroke-linecap="round" stroke-width="4.692"/><line x1="187.077" x2="187.077" y1="49.231" y2="108.308" stroke="#c2d2ee" stroke-linecap="round" stroke-width="4.692"/><line x1="187.077" x2="187.077" y1="305.231" y2="364.308" stroke="#c2d2ee" stroke-linecap="round" stroke-width="4.692"/><line x1="187.077" x2="187.077" y1="-128" y2="-108.308" stroke="#fefefe" stroke-linecap="round" stroke-width="4.692"/><line x1="187.077" x2="187.077" y1="128" y2="147.692" stroke="#fefefe" stroke-linecap="round" stroke-width="4.692"/><line x1="187.077" x2="187.077" y1="384" y2="403.692" stroke="#fefefe" stroke-linecap="round" stroke-width="4.692"/><line x1="187.077" x2="187.077" y1="-88.615" y2="-49.231" stroke="#fefefe" stroke-linecap="round" stroke-width="4.692"/><line x1="187.077" x2="187.077" y1="167.385" y2="206.769" stroke="#fefefe" stroke-linecap="round" stroke-width="4.692"/><line x1="187.077" x2="187.077" y1="423.385" y2="462.769" stroke="#fefefe" stroke-linecap="round" stroke-width="4.692"/><line x1="187.077" x2="187.077" y1="-29.538" y2="-9.846" stroke="#88a2ce" stroke-linecap="round" stroke-width="4.692"/><line x1="187.077" x2="187.077" y1="226.462" y2="246.154" stroke="#88a2ce" stroke-linecap="round" stroke-width="4.692"/><line x1="187.077" x2="187.077" y1="482.462" y2="502.154" stroke="#88a2ce" stroke-linecap="round" stroke-width="4.692"/><animateTransform attributeName="transform" dur="2.0833333333333335s" keyTimes="0;1" repeatCount="indefinite" type="translate" values="0 0;0 -256"/></g><g transform="scale(1.2400000000000002)"><line x1="206.769" x2="206.769" y1="-246.154" y2="-206.769" stroke="#fefefe" stroke-linecap="round" stroke-width="4.692"/><line x1="206.769" x2="206.769" y1="9.846" y2="49.231" stroke="#fefefe" stroke-linecap="round" stroke-width="4.692"/><line x1="206.769" x2="206.769" y1="265.846" y2="305.231" stroke="#fefefe" stroke-linecap="round" stroke-width="4.692"/><line x1="206.769" x2="206.769" y1="-187.077" y2="-128" stroke="#456caa" stroke-linecap="round" stroke-width="4.692"/><line x1="206.769" x2="206.769" y1="68.923" y2="128" stroke="#456caa" stroke-linecap="round" stroke-width="4.692"/><line x1="206.769" x2="206.769" y1="324.923" y2="384" stroke="#456caa" stroke-linecap="round" stroke-width="4.692"/><line x1="206.769" x2="206.769" y1="-108.308" y2="-68.923" stroke="#88a2ce" stroke-linecap="round" stroke-width="4.692"/><line x1="206.769" x2="206.769" y1="147.692" y2="187.077" stroke="#88a2ce" stroke-linecap="round" stroke-width="4.692"/><line x1="206.769" x2="206.769" y1="403.692" y2="443.077" stroke="#88a2ce" stroke-linecap="round" stroke-width="4.692"/><line x1="206.769" x2="206.769" y1="-49.231" y2="-9.846" stroke="#c2d2ee" stroke-linecap="round" stroke-width="4.692"/><line x1="206.769" x2="206.769" y1="206.769" y2="246.154" stroke="#c2d2ee" stroke-linecap="round" stroke-width="4.692"/><line x1="206.769" x2="206.769" y1="462.769" y2="502.154" stroke="#c2d2ee" stroke-linecap="round" stroke-width="4.692"/><animateTransform attributeName="transform" dur="0.6944444444444444s" keyTimes="0;1" repeatCount="indefinite" type="translate" values="0 0;0 256"/></g><g transform="scale(1.2400000000000002)"><line x1="226.462" x2="226.462" y1="-265.846" y2="-226.462" stroke="#88a2ce" stroke-linecap="round" stroke-width="4.692"/><line x1="226.462" x2="226.462" y1="-9.846" y2="29.538" stroke="#88a2ce" stroke-linecap="round" stroke-width="4.692"/><line x1="226.462" x2="226.462" y1="246.154" y2="285.538" stroke="#88a2ce" stroke-linecap="round" stroke-width="4.692"/><line x1="226.462" x2="226.462" y1="-206.769" y2="-167.385" stroke="#88a2ce" stroke-linecap="round" stroke-width="4.692"/><line x1="226.462" x2="226.462" y1="49.231" y2="88.615" stroke="#88a2ce" stroke-linecap="round" stroke-width="4.692"/><line x1="226.462" x2="226.462" y1="305.231" y2="344.615" stroke="#88a2ce" stroke-linecap="round" stroke-width="4.692"/><line x1="226.462" x2="226.462" y1="-147.692" y2="-108.308" stroke="#456caa" stroke-linecap="round" stroke-width="4.692"/><line x1="226.462" x2="226.462" y1="108.308" y2="147.692" stroke="#456caa" stroke-linecap="round" stroke-width="4.692"/><line x1="226.462" x2="226.462" y1="364.308" y2="403.692" stroke="#456caa" stroke-linecap="round" stroke-width="4.692"/><line x1="226.462" x2="226.462" y1="-88.615" y2="-68.923" stroke="#456caa" stroke-linecap="round" stroke-width="4.692"/><line x1="226.462" x2="226.462" y1="167.385" y2="187.077" stroke="#456caa" stroke-linecap="round" stroke-width="4.692"/><line x1="226.462" x2="226.462" y1="423.385" y2="443.077" stroke="#456caa" stroke-linecap="round" stroke-width="4.692"/><line x1="226.462" x2="226.462" y1="-49.231" y2="29.538" stroke="#88a2ce" stroke-linecap="round" stroke-width="4.692"/><line x1="226.462" x2="226.462" y1="206.769" y2="285.538" stroke="#88a2ce" stroke-linecap="round" stroke-width="4.692"/><line x1="226.462" x2="226.462" y1="462.769" y2="541.538" stroke="#88a2ce" stroke-linecap="round" stroke-width="4.692"/><animateTransform attributeName="transform" dur="0.6944444444444444s" keyTimes="0;1" repeatCount="indefinite" type="translate" values="0 0;0 -256"/></g><g transform="scale(1.2400000000000002)"><line x1="246.154" x2="246.154" y1="-246.154" y2="-187.077" stroke="#fefefe" stroke-linecap="round" stroke-width="4.692"/><line x1="246.154" x2="246.154" y1="9.846" y2="68.923" stroke="#fefefe" stroke-linecap="round" stroke-width="4.692"/><line x1="246.154" x2="246.154" y1="265.846" y2="324.923" stroke="#fefefe" stroke-linecap="round" stroke-width="4.692"/><line x1="246.154" x2="246.154" y1="-167.385" y2="-128" stroke="#88a2ce" stroke-linecap="round" stroke-width="4.692"/><line x1="246.154" x2="246.154" y1="88.615" y2="128" stroke="#88a2ce" stroke-linecap="round" stroke-width="4.692"/><line x1="246.154" x2="246.154" y1="344.615" y2="384" stroke="#88a2ce" stroke-linecap="round" stroke-width="4.692"/><line x1="246.154" x2="246.154" y1="-108.308" y2="-68.923" stroke="#456caa" stroke-linecap="round" stroke-width="4.692"/><line x1="246.154" x2="246.154" y1="147.692" y2="187.077" stroke="#456caa" stroke-linecap="round" stroke-width="4.692"/><line x1="246.154" x2="246.154" y1="403.692" y2="443.077" stroke="#456caa" stroke-linecap="round" stroke-width="4.692"/><line x1="246.154" x2="246.154" y1="-49.231" y2="-9.846" stroke="#88a2ce" stroke-linecap="round" stroke-width="4.692"/><line x1="246.154" x2="246.154" y1="206.769" y2="246.154" stroke="#88a2ce" stroke-linecap="round" stroke-width="4.692"/><line x1="246.154" x2="246.154" y1="462.769" y2="502.154" stroke="#88a2ce" stroke-linecap="round" stroke-width="4.692"/><animateTransform attributeName="transform" dur="0.6944444444444444s" keyTimes="0;1" repeatCount="indefinite" type="translate" values="0 0;0 256"/></g></g></svg>